<?xml version="1.0" encoding="UTF-8" standalone="no"?>
<!DOCTYPE svg PUBLIC "-//W3C//DTD SVG 1.1//EN" "http://www.w3.org/Graphics/SVG/1.1/DTD/svg11.dtd">
<svg width="100%" height="100%" viewBox="0 0 900 400" version="1.1" xmlns="http://www.w3.org/2000/svg" xmlns:xlink="http://www.w3.org/1999/xlink" xml:space="preserve" xmlns:serif="http://www.serif.com/" style="fill-rule:evenodd;clip-rule:evenodd;stroke-linecap:round;stroke-linejoin:round;">
    <g id="hr" transform="matrix(1,0,0,0.264161,-18.261,246.639)">
        <rect x="74.321" y="331.777" width="787.881" height="2.976" style="fill:#444;"/>
    </g>
    <g id="slogan-pdf" transform="matrix(1,0,0,1,89.7797,8)">
        <g transform="matrix(18,0,0,18,185.401,357.969)">
            <path d="M0.348,-0.144C0.348,-0.097 0.331,-0.06 0.298,-0.032C0.264,-0.004 0.219,0.01 0.161,0.01C0.105,0.01 0.055,-0.002 0.012,-0.027L0.012,-0.079C0.036,-0.064 0.061,-0.053 0.087,-0.044C0.113,-0.036 0.137,-0.032 0.159,-0.032C0.204,-0.032 0.238,-0.042 0.262,-0.06C0.286,-0.079 0.298,-0.106 0.298,-0.14C0.298,-0.154 0.295,-0.166 0.29,-0.176C0.285,-0.187 0.277,-0.197 0.266,-0.206C0.255,-0.216 0.233,-0.23 0.201,-0.248C0.153,-0.274 0.12,-0.298 0.104,-0.319C0.087,-0.34 0.078,-0.366 0.078,-0.397C0.078,-0.439 0.094,-0.473 0.126,-0.499C0.158,-0.526 0.201,-0.539 0.253,-0.539C0.277,-0.539 0.303,-0.536 0.33,-0.531C0.358,-0.525 0.38,-0.517 0.399,-0.508L0.382,-0.465C0.338,-0.486 0.295,-0.496 0.253,-0.496C0.215,-0.496 0.185,-0.487 0.162,-0.47C0.139,-0.453 0.128,-0.431 0.128,-0.403C0.128,-0.385 0.131,-0.371 0.136,-0.36C0.142,-0.349 0.152,-0.338 0.166,-0.326C0.18,-0.315 0.199,-0.302 0.224,-0.289C0.261,-0.269 0.288,-0.252 0.303,-0.239C0.318,-0.225 0.33,-0.211 0.337,-0.196C0.344,-0.181 0.348,-0.164 0.348,-0.144Z" style="fill:#444;fill-rule:nonzero;"/>
        </g>
        <g transform="matrix(18,0,0,18,192.67,357.969)">
            <path d="M0.243,0.008C0.168,0.008 0.123,-0.028 0.107,-0.099L0.105,-0.099C0.101,-0.076 0.076,0.037 0.032,0.24L-0.016,0.24L0.148,-0.531L0.188,-0.531L0.166,-0.397L0.169,-0.397C0.199,-0.447 0.23,-0.483 0.264,-0.506C0.298,-0.529 0.336,-0.541 0.376,-0.541C0.42,-0.541 0.454,-0.526 0.478,-0.496C0.501,-0.466 0.513,-0.42 0.513,-0.358C0.513,-0.294 0.501,-0.234 0.478,-0.177C0.455,-0.119 0.422,-0.074 0.382,-0.042C0.341,-0.009 0.295,0.008 0.243,0.008ZM0.365,-0.497C0.337,-0.497 0.309,-0.488 0.28,-0.469C0.252,-0.449 0.226,-0.422 0.201,-0.387C0.177,-0.351 0.159,-0.313 0.147,-0.271C0.136,-0.229 0.13,-0.195 0.13,-0.169C0.13,-0.128 0.14,-0.096 0.16,-0.071C0.18,-0.046 0.207,-0.034 0.242,-0.034C0.283,-0.034 0.319,-0.048 0.352,-0.075C0.385,-0.103 0.412,-0.142 0.432,-0.194C0.453,-0.246 0.463,-0.299 0.463,-0.353C0.463,-0.449 0.43,-0.497 0.365,-0.497Z" style="fill:#444;fill-rule:nonzero;"/>
        </g>
        <g transform="matrix(18,0,0,18,202.769,357.969)">
            <path d="M0.348,-0.54C0.371,-0.54 0.391,-0.538 0.408,-0.533L0.398,-0.488C0.383,-0.493 0.364,-0.495 0.343,-0.495C0.312,-0.495 0.283,-0.485 0.255,-0.464C0.228,-0.443 0.203,-0.412 0.181,-0.37C0.159,-0.328 0.142,-0.283 0.132,-0.235L0.083,0L0.035,0L0.148,-0.531L0.187,-0.531L0.173,-0.431L0.176,-0.431C0.2,-0.462 0.22,-0.484 0.236,-0.497C0.252,-0.511 0.269,-0.521 0.288,-0.529C0.306,-0.536 0.326,-0.54 0.348,-0.54Z" style="fill:#444;fill-rule:nonzero;"/>
        </g>
        <g transform="matrix(18,0,0,18,209.378,357.969)">
            <path d="M0.085,0L0.037,0L0.15,-0.531L0.197,-0.531L0.085,0ZM0.171,-0.667C0.171,-0.685 0.174,-0.699 0.182,-0.71C0.189,-0.721 0.199,-0.726 0.211,-0.726C0.229,-0.726 0.239,-0.714 0.239,-0.691C0.239,-0.672 0.235,-0.658 0.228,-0.647C0.221,-0.636 0.212,-0.631 0.2,-0.631C0.191,-0.631 0.184,-0.634 0.178,-0.64C0.173,-0.647 0.171,-0.656 0.171,-0.667Z" style="fill:#444;fill-rule:nonzero;"/>
        </g>
        <g transform="matrix(18,0,0,18,213.553,357.969)">
            <path d="M0.373,0L0.446,-0.338C0.453,-0.368 0.456,-0.393 0.456,-0.414C0.456,-0.44 0.449,-0.46 0.435,-0.475C0.421,-0.49 0.399,-0.497 0.369,-0.497C0.333,-0.497 0.298,-0.486 0.266,-0.464C0.234,-0.443 0.207,-0.412 0.185,-0.373C0.163,-0.334 0.146,-0.287 0.135,-0.233L0.085,0L0.037,0L0.15,-0.531L0.19,-0.531L0.172,-0.423L0.175,-0.423C0.228,-0.5 0.296,-0.539 0.378,-0.539C0.42,-0.539 0.452,-0.529 0.473,-0.508C0.494,-0.487 0.505,-0.457 0.505,-0.418C0.505,-0.395 0.501,-0.366 0.493,-0.329L0.421,0L0.373,0Z" style="fill:#444;fill-rule:nonzero;"/>
        </g>
        <g transform="matrix(18,0,0,18,223.599,357.969)">
            <path d="M0.537,-0.531L0.529,-0.492L0.41,-0.487C0.419,-0.478 0.426,-0.464 0.431,-0.446C0.437,-0.428 0.44,-0.409 0.44,-0.39C0.44,-0.355 0.431,-0.321 0.413,-0.289C0.396,-0.258 0.372,-0.234 0.341,-0.218C0.311,-0.203 0.276,-0.195 0.237,-0.195C0.216,-0.195 0.204,-0.196 0.199,-0.199C0.173,-0.188 0.153,-0.177 0.139,-0.164C0.124,-0.151 0.117,-0.137 0.117,-0.124C0.117,-0.111 0.122,-0.1 0.133,-0.093C0.143,-0.085 0.161,-0.08 0.188,-0.077L0.247,-0.072C0.36,-0.062 0.416,-0.019 0.416,0.057C0.416,0.094 0.405,0.126 0.384,0.154C0.363,0.181 0.333,0.203 0.293,0.218C0.253,0.233 0.206,0.24 0.151,0.24C0.09,0.24 0.043,0.229 0.009,0.205C-0.026,0.182 -0.043,0.149 -0.043,0.106C-0.043,0.029 0.007,-0.025 0.108,-0.057C0.083,-0.071 0.07,-0.091 0.07,-0.117C0.07,-0.157 0.101,-0.19 0.163,-0.216C0.14,-0.228 0.122,-0.245 0.109,-0.267C0.096,-0.29 0.09,-0.316 0.09,-0.344C0.09,-0.38 0.099,-0.414 0.116,-0.444C0.133,-0.474 0.157,-0.498 0.188,-0.515C0.219,-0.532 0.253,-0.541 0.289,-0.541C0.312,-0.541 0.335,-0.538 0.361,-0.531L0.537,-0.531ZM0.007,0.101C0.007,0.134 0.02,0.158 0.046,0.174C0.073,0.19 0.109,0.198 0.156,0.198C0.222,0.198 0.273,0.186 0.311,0.162C0.348,0.138 0.366,0.104 0.366,0.062C0.366,0.034 0.356,0.013 0.336,-0.002C0.315,-0.017 0.28,-0.026 0.229,-0.03L0.151,-0.037C0.1,-0.022 0.063,-0.004 0.041,0.019C0.018,0.041 0.007,0.069 0.007,0.101ZM0.139,-0.347C0.139,-0.311 0.149,-0.283 0.168,-0.264C0.187,-0.245 0.214,-0.236 0.248,-0.236C0.277,-0.236 0.302,-0.242 0.323,-0.254C0.345,-0.266 0.361,-0.285 0.373,-0.31C0.385,-0.335 0.391,-0.362 0.391,-0.392C0.391,-0.426 0.382,-0.452 0.364,-0.471C0.346,-0.49 0.32,-0.499 0.287,-0.499C0.257,-0.499 0.231,-0.492 0.208,-0.478C0.186,-0.464 0.169,-0.445 0.157,-0.421C0.145,-0.398 0.139,-0.373 0.139,-0.347Z" style="fill:#444;fill-rule:nonzero;"/>
        </g>
        <g transform="matrix(18,0,0,18,237.415,357.969)">
            <path d="M0.135,0L0.051,-0.531L0.1,-0.531L0.153,-0.172C0.161,-0.118 0.167,-0.077 0.169,-0.048L0.172,-0.048C0.188,-0.085 0.209,-0.127 0.235,-0.173L0.433,-0.531L0.483,-0.531L0.19,0L0.135,0Z" style="fill:#444;fill-rule:nonzero;"/>
        </g>
        <g transform="matrix(18,0,0,18,245.281,357.969)">
            <path d="M0.32,-0.539C0.395,-0.539 0.441,-0.503 0.456,-0.432L0.459,-0.432L0.488,-0.531L0.527,-0.531L0.415,0L0.375,0L0.397,-0.134L0.394,-0.134C0.367,-0.088 0.336,-0.052 0.303,-0.027C0.269,-0.003 0.231,0.01 0.187,0.01C0.096,0.01 0.05,-0.051 0.05,-0.173C0.05,-0.237 0.062,-0.298 0.086,-0.356C0.111,-0.415 0.143,-0.46 0.184,-0.491C0.225,-0.523 0.27,-0.539 0.32,-0.539ZM0.198,-0.034C0.227,-0.034 0.256,-0.044 0.285,-0.064C0.314,-0.085 0.34,-0.112 0.363,-0.146C0.385,-0.179 0.403,-0.217 0.415,-0.258C0.427,-0.299 0.433,-0.333 0.433,-0.362C0.433,-0.388 0.429,-0.411 0.42,-0.431C0.412,-0.451 0.399,-0.467 0.383,-0.479C0.366,-0.491 0.346,-0.497 0.321,-0.497C0.28,-0.497 0.244,-0.484 0.211,-0.457C0.179,-0.43 0.152,-0.39 0.131,-0.337C0.111,-0.284 0.1,-0.231 0.1,-0.178C0.1,-0.129 0.108,-0.092 0.125,-0.069C0.141,-0.046 0.165,-0.034 0.198,-0.034Z" style="fill:#444;fill-rule:nonzero;"/>
        </g>
        <g transform="matrix(18,0,0,18,255.239,357.969)">
            <path d="M0.373,0L0.446,-0.338C0.453,-0.368 0.456,-0.393 0.456,-0.414C0.456,-0.44 0.449,-0.46 0.435,-0.475C0.421,-0.49 0.399,-0.497 0.369,-0.497C0.333,-0.497 0.298,-0.486 0.266,-0.464C0.234,-0.443 0.207,-0.412 0.185,-0.373C0.163,-0.334 0.146,-0.287 0.135,-0.233L0.085,0L0.037,0L0.15,-0.531L0.19,-0.531L0.172,-0.423L0.175,-0.423C0.228,-0.5 0.296,-0.539 0.378,-0.539C0.42,-0.539 0.452,-0.529 0.473,-0.508C0.494,-0.487 0.505,-0.457 0.505,-0.418C0.505,-0.395 0.501,-0.366 0.493,-0.329L0.421,0L0.373,0Z" style="fill:#444;fill-rule:nonzero;"/>
        </g>
        <g transform="matrix(18,0,0,18,265.285,357.969)">
            <path d="M0.085,0L0.037,0L0.15,-0.531L0.197,-0.531L0.085,0ZM0.171,-0.667C0.171,-0.685 0.174,-0.699 0.182,-0.71C0.189,-0.721 0.199,-0.726 0.211,-0.726C0.229,-0.726 0.239,-0.714 0.239,-0.691C0.239,-0.672 0.235,-0.658 0.228,-0.647C0.221,-0.636 0.212,-0.631 0.2,-0.631C0.191,-0.631 0.184,-0.634 0.178,-0.64C0.173,-0.647 0.171,-0.656 0.171,-0.667Z" style="fill:#444;fill-rule:nonzero;"/>
        </g>
        <g transform="matrix(18,0,0,18,269.46,357.969)">
            <path d="M0.083,0L0.037,0L0.2,-0.76L0.246,-0.76L0.083,0Z" style="fill:#444;fill-rule:nonzero;"/>
        </g>
        <g transform="matrix(18,0,0,18,273.635,357.969)">
            <path d="M0.083,0L0.037,0L0.2,-0.76L0.246,-0.76L0.083,0Z" style="fill:#444;fill-rule:nonzero;"/>
        </g>
        <g transform="matrix(18,0,0,18,277.81,357.969)">
            <path d="M0.32,-0.539C0.395,-0.539 0.441,-0.503 0.456,-0.432L0.459,-0.432L0.488,-0.531L0.527,-0.531L0.415,0L0.375,0L0.397,-0.134L0.394,-0.134C0.367,-0.088 0.336,-0.052 0.303,-0.027C0.269,-0.003 0.231,0.01 0.187,0.01C0.096,0.01 0.05,-0.051 0.05,-0.173C0.05,-0.237 0.062,-0.298 0.086,-0.356C0.111,-0.415 0.143,-0.46 0.184,-0.491C0.225,-0.523 0.27,-0.539 0.32,-0.539ZM0.198,-0.034C0.227,-0.034 0.256,-0.044 0.285,-0.064C0.314,-0.085 0.34,-0.112 0.363,-0.146C0.385,-0.179 0.403,-0.217 0.415,-0.258C0.427,-0.299 0.433,-0.333 0.433,-0.362C0.433,-0.388 0.429,-0.411 0.42,-0.431C0.412,-0.451 0.399,-0.467 0.383,-0.479C0.366,-0.491 0.346,-0.497 0.321,-0.497C0.28,-0.497 0.244,-0.484 0.211,-0.457C0.179,-0.43 0.152,-0.39 0.131,-0.337C0.111,-0.284 0.1,-0.231 0.1,-0.178C0.1,-0.129 0.108,-0.092 0.125,-0.069C0.141,-0.046 0.165,-0.034 0.198,-0.034Z" style="fill:#444;fill-rule:nonzero;"/>
        </g>
        <g transform="matrix(18,0,0,18,292.443,357.969)">
            <path d="M0.085,0L0.037,0L0.15,-0.531L0.197,-0.531L0.085,0ZM0.171,-0.667C0.171,-0.685 0.174,-0.699 0.182,-0.71C0.189,-0.721 0.199,-0.726 0.211,-0.726C0.229,-0.726 0.239,-0.714 0.239,-0.691C0.239,-0.672 0.235,-0.658 0.228,-0.647C0.221,-0.636 0.212,-0.631 0.2,-0.631C0.191,-0.631 0.184,-0.634 0.178,-0.64C0.173,-0.647 0.171,-0.656 0.171,-0.667Z" style="fill:#444;fill-rule:nonzero;"/>
        </g>
        <g transform="matrix(18,0,0,18,296.618,357.969)">
            <path d="M0.373,0L0.446,-0.338C0.453,-0.368 0.456,-0.393 0.456,-0.414C0.456,-0.44 0.449,-0.46 0.435,-0.475C0.421,-0.49 0.399,-0.497 0.369,-0.497C0.333,-0.497 0.298,-0.486 0.266,-0.464C0.234,-0.443 0.207,-0.412 0.185,-0.373C0.163,-0.334 0.146,-0.287 0.135,-0.233L0.085,0L0.037,0L0.15,-0.531L0.19,-0.531L0.172,-0.423L0.175,-0.423C0.228,-0.5 0.296,-0.539 0.378,-0.539C0.42,-0.539 0.452,-0.529 0.473,-0.508C0.494,-0.487 0.505,-0.457 0.505,-0.418C0.505,-0.395 0.501,-0.366 0.493,-0.329L0.421,0L0.373,0Z" style="fill:#444;fill-rule:nonzero;"/>
        </g>
        <g transform="matrix(18,0,0,18,306.664,357.969)">
            <path d="M0.339,-0.531L0.33,-0.491L0.192,-0.491L0.126,-0.181C0.119,-0.149 0.115,-0.122 0.115,-0.101C0.115,-0.056 0.136,-0.033 0.177,-0.033C0.199,-0.033 0.224,-0.037 0.251,-0.046L0.251,-0.004C0.218,0.005 0.19,0.01 0.168,0.01C0.136,0.01 0.111,0.001 0.093,-0.017C0.076,-0.035 0.067,-0.06 0.067,-0.094C0.067,-0.118 0.072,-0.152 0.081,-0.195L0.144,-0.491L0.055,-0.491L0.062,-0.524L0.152,-0.532L0.199,-0.656L0.226,-0.656L0.199,-0.531L0.339,-0.531Z" style="fill:#444;fill-rule:nonzero;"/>
        </g>
        <g transform="matrix(18,0,0,18,312.078,357.969)">
            <path d="M0.229,0.01C0.173,0.01 0.129,-0.008 0.097,-0.044C0.066,-0.079 0.05,-0.129 0.05,-0.193C0.05,-0.252 0.061,-0.308 0.084,-0.362C0.108,-0.416 0.139,-0.459 0.18,-0.491C0.22,-0.523 0.265,-0.539 0.314,-0.539C0.351,-0.539 0.381,-0.529 0.403,-0.509C0.425,-0.489 0.436,-0.462 0.436,-0.428C0.436,-0.369 0.409,-0.324 0.356,-0.293C0.303,-0.263 0.224,-0.247 0.119,-0.247L0.103,-0.247C0.101,-0.233 0.1,-0.217 0.1,-0.199C0.1,-0.146 0.112,-0.105 0.136,-0.076C0.16,-0.048 0.195,-0.034 0.24,-0.034C0.283,-0.034 0.328,-0.046 0.375,-0.07L0.375,-0.024C0.329,-0.001 0.281,0.01 0.229,0.01ZM0.308,-0.497C0.265,-0.497 0.226,-0.478 0.189,-0.441C0.153,-0.403 0.126,-0.353 0.11,-0.29L0.134,-0.29C0.302,-0.29 0.386,-0.334 0.386,-0.422C0.386,-0.444 0.379,-0.462 0.365,-0.476C0.351,-0.49 0.332,-0.497 0.308,-0.497Z" style="fill:#444;fill-rule:nonzero;"/>
        </g>
        <g transform="matrix(18,0,0,18,320.234,357.969)">
            <path d="M0.537,-0.531L0.529,-0.492L0.41,-0.487C0.419,-0.478 0.426,-0.464 0.431,-0.446C0.437,-0.428 0.44,-0.409 0.44,-0.39C0.44,-0.355 0.431,-0.321 0.413,-0.289C0.396,-0.258 0.372,-0.234 0.341,-0.218C0.311,-0.203 0.276,-0.195 0.237,-0.195C0.216,-0.195 0.204,-0.196 0.199,-0.199C0.173,-0.188 0.153,-0.177 0.139,-0.164C0.124,-0.151 0.117,-0.137 0.117,-0.124C0.117,-0.111 0.122,-0.1 0.133,-0.093C0.143,-0.085 0.161,-0.08 0.188,-0.077L0.247,-0.072C0.36,-0.062 0.416,-0.019 0.416,0.057C0.416,0.094 0.405,0.126 0.384,0.154C0.363,0.181 0.333,0.203 0.293,0.218C0.253,0.233 0.206,0.24 0.151,0.24C0.09,0.24 0.043,0.229 0.009,0.205C-0.026,0.182 -0.043,0.149 -0.043,0.106C-0.043,0.029 0.007,-0.025 0.108,-0.057C0.083,-0.071 0.07,-0.091 0.07,-0.117C0.07,-0.157 0.101,-0.19 0.163,-0.216C0.14,-0.228 0.122,-0.245 0.109,-0.267C0.096,-0.29 0.09,-0.316 0.09,-0.344C0.09,-0.38 0.099,-0.414 0.116,-0.444C0.133,-0.474 0.157,-0.498 0.188,-0.515C0.219,-0.532 0.253,-0.541 0.289,-0.541C0.312,-0.541 0.335,-0.538 0.361,-0.531L0.537,-0.531ZM0.007,0.101C0.007,0.134 0.02,0.158 0.046,0.174C0.073,0.19 0.109,0.198 0.156,0.198C0.222,0.198 0.273,0.186 0.311,0.162C0.348,0.138 0.366,0.104 0.366,0.062C0.366,0.034 0.356,0.013 0.336,-0.002C0.315,-0.017 0.28,-0.026 0.229,-0.03L0.151,-0.037C0.1,-0.022 0.063,-0.004 0.041,0.019C0.018,0.041 0.007,0.069 0.007,0.101ZM0.139,-0.347C0.139,-0.311 0.149,-0.283 0.168,-0.264C0.187,-0.245 0.214,-0.236 0.248,-0.236C0.277,-0.236 0.302,-0.242 0.323,-0.254C0.345,-0.266 0.361,-0.285 0.373,-0.31C0.385,-0.335 0.391,-0.362 0.391,-0.392C0.391,-0.426 0.382,-0.452 0.364,-0.471C0.346,-0.49 0.32,-0.499 0.287,-0.499C0.257,-0.499 0.231,-0.492 0.208,-0.478C0.186,-0.464 0.169,-0.445 0.157,-0.421C0.145,-0.398 0.139,-0.373 0.139,-0.347Z" style="fill:#444;fill-rule:nonzero;"/>
        </g>
        <g transform="matrix(18,0,0,18,329.375,357.969)">
            <path d="M0.348,-0.54C0.371,-0.54 0.391,-0.538 0.408,-0.533L0.398,-0.488C0.383,-0.493 0.364,-0.495 0.343,-0.495C0.312,-0.495 0.283,-0.485 0.255,-0.464C0.228,-0.443 0.203,-0.412 0.181,-0.37C0.159,-0.328 0.142,-0.283 0.132,-0.235L0.083,0L0.035,0L0.148,-0.531L0.187,-0.531L0.173,-0.431L0.176,-0.431C0.2,-0.462 0.22,-0.484 0.236,-0.497C0.252,-0.511 0.269,-0.521 0.288,-0.529C0.306,-0.536 0.326,-0.54 0.348,-0.54Z" style="fill:#444;fill-rule:nonzero;"/>
        </g>
        <g transform="matrix(18,0,0,18,335.624,357.969)">
            <path d="M0.32,-0.539C0.395,-0.539 0.441,-0.503 0.456,-0.432L0.459,-0.432L0.488,-0.531L0.527,-0.531L0.415,0L0.375,0L0.397,-0.134L0.394,-0.134C0.367,-0.088 0.336,-0.052 0.303,-0.027C0.269,-0.003 0.231,0.01 0.187,0.01C0.096,0.01 0.05,-0.051 0.05,-0.173C0.05,-0.237 0.062,-0.298 0.086,-0.356C0.111,-0.415 0.143,-0.46 0.184,-0.491C0.225,-0.523 0.27,-0.539 0.32,-0.539ZM0.198,-0.034C0.227,-0.034 0.256,-0.044 0.285,-0.064C0.314,-0.085 0.34,-0.112 0.363,-0.146C0.385,-0.179 0.403,-0.217 0.415,-0.258C0.427,-0.299 0.433,-0.333 0.433,-0.362C0.433,-0.388 0.429,-0.411 0.42,-0.431C0.412,-0.451 0.399,-0.467 0.383,-0.479C0.366,-0.491 0.346,-0.497 0.321,-0.497C0.28,-0.497 0.244,-0.484 0.211,-0.457C0.179,-0.43 0.152,-0.39 0.131,-0.337C0.111,-0.284 0.1,-0.231 0.1,-0.178C0.1,-0.129 0.108,-0.092 0.125,-0.069C0.141,-0.046 0.165,-0.034 0.198,-0.034Z" style="fill:#444;fill-rule:nonzero;"/>
        </g>
        <g transform="matrix(18,0,0,18,345.582,357.969)">
            <path d="M0.339,-0.531L0.33,-0.491L0.192,-0.491L0.126,-0.181C0.119,-0.149 0.115,-0.122 0.115,-0.101C0.115,-0.056 0.136,-0.033 0.177,-0.033C0.199,-0.033 0.224,-0.037 0.251,-0.046L0.251,-0.004C0.218,0.005 0.19,0.01 0.168,0.01C0.136,0.01 0.111,0.001 0.093,-0.017C0.076,-0.035 0.067,-0.06 0.067,-0.094C0.067,-0.118 0.072,-0.152 0.081,-0.195L0.144,-0.491L0.055,-0.491L0.062,-0.524L0.152,-0.532L0.199,-0.656L0.226,-0.656L0.199,-0.531L0.339,-0.531Z" style="fill:#444;fill-rule:nonzero;"/>
        </g>
        <g transform="matrix(18,0,0,18,350.996,357.969)">
            <path d="M0.085,0L0.037,0L0.15,-0.531L0.197,-0.531L0.085,0ZM0.171,-0.667C0.171,-0.685 0.174,-0.699 0.182,-0.71C0.189,-0.721 0.199,-0.726 0.211,-0.726C0.229,-0.726 0.239,-0.714 0.239,-0.691C0.239,-0.672 0.235,-0.658 0.228,-0.647C0.221,-0.636 0.212,-0.631 0.2,-0.631C0.191,-0.631 0.184,-0.634 0.178,-0.64C0.173,-0.647 0.171,-0.656 0.171,-0.667Z" style="fill:#444;fill-rule:nonzero;"/>
        </g>
        <g transform="matrix(18,0,0,18,355.171,357.969)">
            <path d="M0.317,-0.541C0.375,-0.541 0.421,-0.523 0.453,-0.488C0.485,-0.453 0.501,-0.404 0.501,-0.342C0.501,-0.278 0.489,-0.218 0.466,-0.162C0.443,-0.106 0.411,-0.063 0.371,-0.034C0.33,-0.005 0.284,0.01 0.231,0.01C0.171,0.01 0.126,-0.008 0.094,-0.044C0.063,-0.079 0.048,-0.13 0.048,-0.197C0.048,-0.259 0.06,-0.317 0.083,-0.372C0.107,-0.426 0.139,-0.468 0.18,-0.497C0.22,-0.526 0.266,-0.541 0.317,-0.541ZM0.313,-0.499C0.273,-0.499 0.236,-0.486 0.204,-0.461C0.172,-0.435 0.146,-0.399 0.127,-0.351C0.108,-0.303 0.098,-0.253 0.098,-0.199C0.098,-0.088 0.144,-0.032 0.236,-0.032C0.277,-0.032 0.314,-0.045 0.346,-0.07C0.378,-0.095 0.404,-0.132 0.423,-0.181C0.442,-0.23 0.451,-0.284 0.451,-0.343C0.451,-0.393 0.439,-0.431 0.416,-0.458C0.392,-0.486 0.358,-0.499 0.313,-0.499Z" style="fill:#444;fill-rule:nonzero;"/>
        </g>
        <g transform="matrix(18,0,0,18,365.05,357.969)">
            <path d="M0.373,0L0.446,-0.338C0.453,-0.368 0.456,-0.393 0.456,-0.414C0.456,-0.44 0.449,-0.46 0.435,-0.475C0.421,-0.49 0.399,-0.497 0.369,-0.497C0.333,-0.497 0.298,-0.486 0.266,-0.464C0.234,-0.443 0.207,-0.412 0.185,-0.373C0.163,-0.334 0.146,-0.287 0.135,-0.233L0.085,0L0.037,0L0.15,-0.531L0.19,-0.531L0.172,-0.423L0.175,-0.423C0.228,-0.5 0.296,-0.539 0.378,-0.539C0.42,-0.539 0.452,-0.529 0.473,-0.508C0.494,-0.487 0.505,-0.457 0.505,-0.418C0.505,-0.395 0.501,-0.366 0.493,-0.329L0.421,0L0.373,0Z" style="fill:#444;fill-rule:nonzero;"/>
        </g>
        <g transform="matrix(18,0,0,18,379.772,357.969)">
            <path d="M0.317,-0.541C0.375,-0.541 0.421,-0.523 0.453,-0.488C0.485,-0.453 0.501,-0.404 0.501,-0.342C0.501,-0.278 0.489,-0.218 0.466,-0.162C0.443,-0.106 0.411,-0.063 0.371,-0.034C0.33,-0.005 0.284,0.01 0.231,0.01C0.171,0.01 0.126,-0.008 0.094,-0.044C0.063,-0.079 0.048,-0.13 0.048,-0.197C0.048,-0.259 0.06,-0.317 0.083,-0.372C0.107,-0.426 0.139,-0.468 0.18,-0.497C0.22,-0.526 0.266,-0.541 0.317,-0.541ZM0.313,-0.499C0.273,-0.499 0.236,-0.486 0.204,-0.461C0.172,-0.435 0.146,-0.399 0.127,-0.351C0.108,-0.303 0.098,-0.253 0.098,-0.199C0.098,-0.088 0.144,-0.032 0.236,-0.032C0.277,-0.032 0.314,-0.045 0.346,-0.07C0.378,-0.095 0.404,-0.132 0.423,-0.181C0.442,-0.23 0.451,-0.284 0.451,-0.343C0.451,-0.393 0.439,-0.431 0.416,-0.458C0.392,-0.486 0.358,-0.499 0.313,-0.499Z" style="fill:#444;fill-rule:nonzero;"/>
        </g>
        <g transform="matrix(18,0,0,18,389.65,357.969)">
            <path d="M-0.064,0.24C-0.08,0.24 -0.096,0.237 -0.114,0.231L-0.114,0.187C-0.097,0.192 -0.08,0.195 -0.065,0.195C-0.036,0.195 -0.014,0.186 0,0.169C0.015,0.152 0.028,0.121 0.037,0.078L0.157,-0.491L0.057,-0.491L0.064,-0.524L0.164,-0.531L0.181,-0.609C0.193,-0.664 0.212,-0.703 0.238,-0.728C0.265,-0.753 0.302,-0.765 0.349,-0.765C0.373,-0.765 0.4,-0.76 0.43,-0.75L0.418,-0.711C0.39,-0.72 0.366,-0.724 0.346,-0.724C0.315,-0.724 0.29,-0.715 0.271,-0.698C0.253,-0.681 0.239,-0.652 0.23,-0.611L0.213,-0.531L0.334,-0.531L0.326,-0.491L0.205,-0.491L0.082,0.09C0.071,0.142 0.054,0.18 0.031,0.204C0.008,0.228 -0.024,0.24 -0.064,0.24Z" style="fill:#444;fill-rule:nonzero;"/>
        </g>
        <g transform="matrix(18,0,0,18,399.406,357.969)">
            <path d="M0.243,0.008C0.168,0.008 0.123,-0.028 0.107,-0.099L0.105,-0.099C0.101,-0.076 0.076,0.037 0.032,0.24L-0.016,0.24L0.148,-0.531L0.188,-0.531L0.166,-0.397L0.169,-0.397C0.199,-0.447 0.23,-0.483 0.264,-0.506C0.298,-0.529 0.336,-0.541 0.376,-0.541C0.42,-0.541 0.454,-0.526 0.478,-0.496C0.501,-0.466 0.513,-0.42 0.513,-0.358C0.513,-0.294 0.501,-0.234 0.478,-0.177C0.455,-0.119 0.422,-0.074 0.382,-0.042C0.341,-0.009 0.295,0.008 0.243,0.008ZM0.365,-0.497C0.337,-0.497 0.309,-0.488 0.28,-0.469C0.252,-0.449 0.226,-0.422 0.201,-0.387C0.177,-0.351 0.159,-0.313 0.147,-0.271C0.136,-0.229 0.13,-0.195 0.13,-0.169C0.13,-0.128 0.14,-0.096 0.16,-0.071C0.18,-0.046 0.207,-0.034 0.242,-0.034C0.283,-0.034 0.319,-0.048 0.352,-0.075C0.385,-0.103 0.412,-0.142 0.432,-0.194C0.453,-0.246 0.463,-0.299 0.463,-0.353C0.463,-0.449 0.43,-0.497 0.365,-0.497Z" style="fill:#444;fill-rule:nonzero;"/>
        </g>
        <g transform="matrix(18,0,0,18,409.505,357.969)">
            <path d="M0.317,-0.541C0.375,-0.541 0.421,-0.523 0.453,-0.488C0.485,-0.453 0.501,-0.404 0.501,-0.342C0.501,-0.278 0.489,-0.218 0.466,-0.162C0.443,-0.106 0.411,-0.063 0.371,-0.034C0.33,-0.005 0.284,0.01 0.231,0.01C0.171,0.01 0.126,-0.008 0.094,-0.044C0.063,-0.079 0.048,-0.13 0.048,-0.197C0.048,-0.259 0.06,-0.317 0.083,-0.372C0.107,-0.426 0.139,-0.468 0.18,-0.497C0.22,-0.526 0.266,-0.541 0.317,-0.541ZM0.313,-0.499C0.273,-0.499 0.236,-0.486 0.204,-0.461C0.172,-0.435 0.146,-0.399 0.127,-0.351C0.108,-0.303 0.098,-0.253 0.098,-0.199C0.098,-0.088 0.144,-0.032 0.236,-0.032C0.277,-0.032 0.314,-0.045 0.346,-0.07C0.378,-0.095 0.404,-0.132 0.423,-0.181C0.442,-0.23 0.451,-0.284 0.451,-0.343C0.451,-0.393 0.439,-0.431 0.416,-0.458C0.392,-0.486 0.358,-0.499 0.313,-0.499Z" style="fill:#444;fill-rule:nonzero;"/>
        </g>
        <g transform="matrix(18,0,0,18,419.384,357.969)">
            <path d="M0.348,-0.144C0.348,-0.097 0.331,-0.06 0.298,-0.032C0.264,-0.004 0.219,0.01 0.161,0.01C0.105,0.01 0.055,-0.002 0.012,-0.027L0.012,-0.079C0.036,-0.064 0.061,-0.053 0.087,-0.044C0.113,-0.036 0.137,-0.032 0.159,-0.032C0.204,-0.032 0.238,-0.042 0.262,-0.06C0.286,-0.079 0.298,-0.106 0.298,-0.14C0.298,-0.154 0.295,-0.166 0.29,-0.176C0.285,-0.187 0.277,-0.197 0.266,-0.206C0.255,-0.216 0.233,-0.23 0.201,-0.248C0.153,-0.274 0.12,-0.298 0.104,-0.319C0.087,-0.34 0.078,-0.366 0.078,-0.397C0.078,-0.439 0.094,-0.473 0.126,-0.499C0.158,-0.526 0.201,-0.539 0.253,-0.539C0.277,-0.539 0.303,-0.536 0.33,-0.531C0.358,-0.525 0.38,-0.517 0.399,-0.508L0.382,-0.465C0.338,-0.486 0.295,-0.496 0.253,-0.496C0.215,-0.496 0.185,-0.487 0.162,-0.47C0.139,-0.453 0.128,-0.431 0.128,-0.403C0.128,-0.385 0.131,-0.371 0.136,-0.36C0.142,-0.349 0.152,-0.338 0.166,-0.326C0.18,-0.315 0.199,-0.302 0.224,-0.289C0.261,-0.269 0.288,-0.252 0.303,-0.239C0.318,-0.225 0.33,-0.211 0.337,-0.196C0.344,-0.181 0.348,-0.164 0.348,-0.144Z" style="fill:#444;fill-rule:nonzero;"/>
        </g>
        <g transform="matrix(18,0,0,18,426.652,357.969)">
            <path d="M0.339,-0.531L0.33,-0.491L0.192,-0.491L0.126,-0.181C0.119,-0.149 0.115,-0.122 0.115,-0.101C0.115,-0.056 0.136,-0.033 0.177,-0.033C0.199,-0.033 0.224,-0.037 0.251,-0.046L0.251,-0.004C0.218,0.005 0.19,0.01 0.168,0.01C0.136,0.01 0.111,0.001 0.093,-0.017C0.076,-0.035 0.067,-0.06 0.067,-0.094C0.067,-0.118 0.072,-0.152 0.081,-0.195L0.144,-0.491L0.055,-0.491L0.062,-0.524L0.152,-0.532L0.199,-0.656L0.226,-0.656L0.199,-0.531L0.339,-0.531Z" style="fill:#444;fill-rule:nonzero;"/>
        </g>
        <g transform="matrix(18,0,0,18,432.067,357.969)">
            <path d="M0.347,0L0.419,-0.329C0.427,-0.37 0.431,-0.396 0.431,-0.408C0.431,-0.467 0.406,-0.497 0.356,-0.497C0.321,-0.497 0.289,-0.486 0.258,-0.464C0.228,-0.442 0.202,-0.411 0.181,-0.372C0.16,-0.333 0.143,-0.286 0.132,-0.232L0.083,0L0.035,0L0.148,-0.531L0.187,-0.531L0.171,-0.428L0.174,-0.428C0.2,-0.465 0.229,-0.493 0.262,-0.511C0.295,-0.53 0.33,-0.539 0.366,-0.539C0.401,-0.539 0.427,-0.528 0.446,-0.506C0.464,-0.485 0.474,-0.453 0.475,-0.411L0.478,-0.411C0.503,-0.453 0.533,-0.485 0.566,-0.507C0.6,-0.528 0.636,-0.539 0.675,-0.539C0.713,-0.539 0.743,-0.529 0.764,-0.509C0.785,-0.489 0.796,-0.46 0.796,-0.423C0.796,-0.413 0.795,-0.404 0.795,-0.395C0.794,-0.386 0.791,-0.367 0.785,-0.337L0.711,0L0.662,0L0.735,-0.332C0.743,-0.371 0.747,-0.4 0.747,-0.418C0.747,-0.443 0.74,-0.462 0.726,-0.476C0.712,-0.49 0.693,-0.497 0.668,-0.497C0.617,-0.497 0.572,-0.475 0.532,-0.43C0.493,-0.385 0.466,-0.326 0.45,-0.253L0.397,0L0.347,0Z" style="fill:#444;fill-rule:nonzero;"/>
        </g>
        <g transform="matrix(18,0,0,18,447.456,357.969)">
            <path d="M0.32,-0.539C0.395,-0.539 0.441,-0.503 0.456,-0.432L0.459,-0.432L0.488,-0.531L0.527,-0.531L0.415,0L0.375,0L0.397,-0.134L0.394,-0.134C0.367,-0.088 0.336,-0.052 0.303,-0.027C0.269,-0.003 0.231,0.01 0.187,0.01C0.096,0.01 0.05,-0.051 0.05,-0.173C0.05,-0.237 0.062,-0.298 0.086,-0.356C0.111,-0.415 0.143,-0.46 0.184,-0.491C0.225,-0.523 0.27,-0.539 0.32,-0.539ZM0.198,-0.034C0.227,-0.034 0.256,-0.044 0.285,-0.064C0.314,-0.085 0.34,-0.112 0.363,-0.146C0.385,-0.179 0.403,-0.217 0.415,-0.258C0.427,-0.299 0.433,-0.333 0.433,-0.362C0.433,-0.388 0.429,-0.411 0.42,-0.431C0.412,-0.451 0.399,-0.467 0.383,-0.479C0.366,-0.491 0.346,-0.497 0.321,-0.497C0.28,-0.497 0.244,-0.484 0.211,-0.457C0.179,-0.43 0.152,-0.39 0.131,-0.337C0.111,-0.284 0.1,-0.231 0.1,-0.178C0.1,-0.129 0.108,-0.092 0.125,-0.069C0.141,-0.046 0.165,-0.034 0.198,-0.034Z" style="fill:#444;fill-rule:nonzero;"/>
        </g>
        <g transform="matrix(18,0,0,18,457.414,357.969)">
            <path d="M0.348,-0.54C0.371,-0.54 0.391,-0.538 0.408,-0.533L0.398,-0.488C0.383,-0.493 0.364,-0.495 0.343,-0.495C0.312,-0.495 0.283,-0.485 0.255,-0.464C0.228,-0.443 0.203,-0.412 0.181,-0.37C0.159,-0.328 0.142,-0.283 0.132,-0.235L0.083,0L0.035,0L0.148,-0.531L0.187,-0.531L0.173,-0.431L0.176,-0.431C0.2,-0.462 0.22,-0.484 0.236,-0.497C0.252,-0.511 0.269,-0.521 0.288,-0.529C0.306,-0.536 0.326,-0.54 0.348,-0.54Z" style="fill:#444;fill-rule:nonzero;"/>
        </g>
        <g transform="matrix(18,0,0,18,464.024,357.969)">
            <path d="M0.132,-0.233L0.429,-0.531L0.49,-0.531L0.259,-0.302L0.404,0L0.352,0L0.223,-0.273L0.123,-0.181L0.084,0L0.037,0L0.198,-0.76L0.245,-0.76L0.164,-0.379L0.13,-0.233L0.132,-0.233Z" style="fill:#444;fill-rule:nonzero;"/>
        </g>
        <g transform="matrix(18,0,0,18,472.32,357.969)">
            <path d="M0.04,-0.245L0.049,-0.289L0.272,-0.289L0.264,-0.245L0.04,-0.245Z" style="fill:#444;fill-rule:nonzero;"/>
        </g>
        <g transform="matrix(18,0,0,18,477.849,357.969)">
            <path d="M0.348,-0.54C0.371,-0.54 0.391,-0.538 0.408,-0.533L0.398,-0.488C0.383,-0.493 0.364,-0.495 0.343,-0.495C0.312,-0.495 0.283,-0.485 0.255,-0.464C0.228,-0.443 0.203,-0.412 0.181,-0.37C0.159,-0.328 0.142,-0.283 0.132,-0.235L0.083,0L0.035,0L0.148,-0.531L0.187,-0.531L0.173,-0.431L0.176,-0.431C0.2,-0.462 0.22,-0.484 0.236,-0.497C0.252,-0.511 0.269,-0.521 0.288,-0.529C0.306,-0.536 0.326,-0.54 0.348,-0.54Z" style="fill:#444;fill-rule:nonzero;"/>
        </g>
        <g transform="matrix(18,0,0,18,484.098,357.969)">
            <path d="M0.229,0.01C0.173,0.01 0.129,-0.008 0.097,-0.044C0.066,-0.079 0.05,-0.129 0.05,-0.193C0.05,-0.252 0.061,-0.308 0.084,-0.362C0.108,-0.416 0.139,-0.459 0.18,-0.491C0.22,-0.523 0.265,-0.539 0.314,-0.539C0.351,-0.539 0.381,-0.529 0.403,-0.509C0.425,-0.489 0.436,-0.462 0.436,-0.428C0.436,-0.369 0.409,-0.324 0.356,-0.293C0.303,-0.263 0.224,-0.247 0.119,-0.247L0.103,-0.247C0.101,-0.233 0.1,-0.217 0.1,-0.199C0.1,-0.146 0.112,-0.105 0.136,-0.076C0.16,-0.048 0.195,-0.034 0.24,-0.034C0.283,-0.034 0.328,-0.046 0.375,-0.07L0.375,-0.024C0.329,-0.001 0.281,0.01 0.229,0.01ZM0.308,-0.497C0.265,-0.497 0.226,-0.478 0.189,-0.441C0.153,-0.403 0.126,-0.353 0.11,-0.29L0.134,-0.29C0.302,-0.29 0.386,-0.334 0.386,-0.422C0.386,-0.444 0.379,-0.462 0.365,-0.476C0.351,-0.49 0.332,-0.497 0.308,-0.497Z" style="fill:#444;fill-rule:nonzero;"/>
        </g>
        <g transform="matrix(18,0,0,18,492.254,357.969)">
            <path d="M0.348,-0.144C0.348,-0.097 0.331,-0.06 0.298,-0.032C0.264,-0.004 0.219,0.01 0.161,0.01C0.105,0.01 0.055,-0.002 0.012,-0.027L0.012,-0.079C0.036,-0.064 0.061,-0.053 0.087,-0.044C0.113,-0.036 0.137,-0.032 0.159,-0.032C0.204,-0.032 0.238,-0.042 0.262,-0.06C0.286,-0.079 0.298,-0.106 0.298,-0.14C0.298,-0.154 0.295,-0.166 0.29,-0.176C0.285,-0.187 0.277,-0.197 0.266,-0.206C0.255,-0.216 0.233,-0.23 0.201,-0.248C0.153,-0.274 0.12,-0.298 0.104,-0.319C0.087,-0.34 0.078,-0.366 0.078,-0.397C0.078,-0.439 0.094,-0.473 0.126,-0.499C0.158,-0.526 0.201,-0.539 0.253,-0.539C0.277,-0.539 0.303,-0.536 0.33,-0.531C0.358,-0.525 0.38,-0.517 0.399,-0.508L0.382,-0.465C0.338,-0.486 0.295,-0.496 0.253,-0.496C0.215,-0.496 0.185,-0.487 0.162,-0.47C0.139,-0.453 0.128,-0.431 0.128,-0.403C0.128,-0.385 0.131,-0.371 0.136,-0.36C0.142,-0.349 0.152,-0.338 0.166,-0.326C0.18,-0.315 0.199,-0.302 0.224,-0.289C0.261,-0.269 0.288,-0.252 0.303,-0.239C0.318,-0.225 0.33,-0.211 0.337,-0.196C0.344,-0.181 0.348,-0.164 0.348,-0.144Z" style="fill:#444;fill-rule:nonzero;"/>
        </g>
        <g transform="matrix(18,0,0,18,499.523,357.969)">
            <path d="M0.339,-0.531L0.33,-0.491L0.192,-0.491L0.126,-0.181C0.119,-0.149 0.115,-0.122 0.115,-0.101C0.115,-0.056 0.136,-0.033 0.177,-0.033C0.199,-0.033 0.224,-0.037 0.251,-0.046L0.251,-0.004C0.218,0.005 0.19,0.01 0.168,0.01C0.136,0.01 0.111,0.001 0.093,-0.017C0.076,-0.035 0.067,-0.06 0.067,-0.094C0.067,-0.118 0.072,-0.152 0.081,-0.195L0.144,-0.491L0.055,-0.491L0.062,-0.524L0.152,-0.532L0.199,-0.656L0.226,-0.656L0.199,-0.531L0.339,-0.531Z" style="fill:#444;fill-rule:nonzero;"/>
        </g>
        <g transform="matrix(18,0,0,18,504.937,357.969)">
            <path d="M0.04,-0.245L0.049,-0.289L0.272,-0.289L0.264,-0.245L0.04,-0.245Z" style="fill:#444;fill-rule:nonzero;"/>
        </g>
        <g transform="matrix(18,0,0,18,510.465,357.969)">
            <path d="M0.32,-0.539C0.395,-0.539 0.441,-0.503 0.456,-0.432L0.459,-0.432L0.488,-0.531L0.527,-0.531L0.415,0L0.375,0L0.397,-0.134L0.394,-0.134C0.367,-0.088 0.336,-0.052 0.303,-0.027C0.269,-0.003 0.231,0.01 0.187,0.01C0.096,0.01 0.05,-0.051 0.05,-0.173C0.05,-0.237 0.062,-0.298 0.086,-0.356C0.111,-0.415 0.143,-0.46 0.184,-0.491C0.225,-0.523 0.27,-0.539 0.32,-0.539ZM0.198,-0.034C0.227,-0.034 0.256,-0.044 0.285,-0.064C0.314,-0.085 0.34,-0.112 0.363,-0.146C0.385,-0.179 0.403,-0.217 0.415,-0.258C0.427,-0.299 0.433,-0.333 0.433,-0.362C0.433,-0.388 0.429,-0.411 0.42,-0.431C0.412,-0.451 0.399,-0.467 0.383,-0.479C0.366,-0.491 0.346,-0.497 0.321,-0.497C0.28,-0.497 0.244,-0.484 0.211,-0.457C0.179,-0.43 0.152,-0.39 0.131,-0.337C0.111,-0.284 0.1,-0.231 0.1,-0.178C0.1,-0.129 0.108,-0.092 0.125,-0.069C0.141,-0.046 0.165,-0.034 0.198,-0.034Z" style="fill:#444;fill-rule:nonzero;"/>
        </g>
        <g transform="matrix(18,0,0,18,520.423,357.969)">
            <path d="M0.243,0.008C0.168,0.008 0.123,-0.028 0.107,-0.099L0.105,-0.099C0.101,-0.076 0.076,0.037 0.032,0.24L-0.016,0.24L0.148,-0.531L0.188,-0.531L0.166,-0.397L0.169,-0.397C0.199,-0.447 0.23,-0.483 0.264,-0.506C0.298,-0.529 0.336,-0.541 0.376,-0.541C0.42,-0.541 0.454,-0.526 0.478,-0.496C0.501,-0.466 0.513,-0.42 0.513,-0.358C0.513,-0.294 0.501,-0.234 0.478,-0.177C0.455,-0.119 0.422,-0.074 0.382,-0.042C0.341,-0.009 0.295,0.008 0.243,0.008ZM0.365,-0.497C0.337,-0.497 0.309,-0.488 0.28,-0.469C0.252,-0.449 0.226,-0.422 0.201,-0.387C0.177,-0.351 0.159,-0.313 0.147,-0.271C0.136,-0.229 0.13,-0.195 0.13,-0.169C0.13,-0.128 0.14,-0.096 0.16,-0.071C0.18,-0.046 0.207,-0.034 0.242,-0.034C0.283,-0.034 0.319,-0.048 0.352,-0.075C0.385,-0.103 0.412,-0.142 0.432,-0.194C0.453,-0.246 0.463,-0.299 0.463,-0.353C0.463,-0.449 0.43,-0.497 0.365,-0.497Z" style="fill:#444;fill-rule:nonzero;"/>
        </g>
        <g transform="matrix(18,0,0,18,530.522,357.969)">
            <path d="M0.085,0L0.037,0L0.15,-0.531L0.197,-0.531L0.085,0ZM0.171,-0.667C0.171,-0.685 0.174,-0.699 0.182,-0.71C0.189,-0.721 0.199,-0.726 0.211,-0.726C0.229,-0.726 0.239,-0.714 0.239,-0.691C0.239,-0.672 0.235,-0.658 0.228,-0.647C0.221,-0.636 0.212,-0.631 0.2,-0.631C0.191,-0.631 0.184,-0.634 0.178,-0.64C0.173,-0.647 0.171,-0.656 0.171,-0.667Z" style="fill:#444;fill-rule:nonzero;"/>
        </g>
    </g>
    <g id="rocket" transform="matrix(0.944502,0.328507,-0.328507,0.944502,337.676,39.4176)">
        <path d="M54.193,46.982C48.807,50.12 35.889,58.717 31.006,71.41C30.852,71.811 30.915,72.266 31.168,72.612C31.319,72.813 31.525,72.961 31.75,73.043C31.915,73.104 32.096,73.126 32.277,73.115L48.083,71.89C48.096,71.838 48.094,71.783 48.11,71.734L54.193,46.982Z" style="fill-rule:nonzero;"/>
        <path d="M94.962,94.306C99.219,81.402 94.792,66.565 92.722,60.864L81.418,83.861C81.404,83.9 81.385,83.919 81.366,83.957L92.768,95.129C92.898,95.258 93.057,95.355 93.219,95.415C93.241,95.431 93.257,95.437 93.263,95.437C93.916,95.673 94.641,95.335 94.877,94.688C94.932,94.558 94.951,94.429 94.962,94.306Z" style="fill-rule:nonzero;"/>
        <path d="M101.701,29.444C103.131,21.819 102.329,10.787 97.904,4.616C97.797,4.473 97.712,4.311 97.611,4.174C97.342,3.831 97.048,3.542 96.757,3.238C96.581,3.051 96.414,2.829 96.233,2.653C96.024,2.464 95.793,2.324 95.579,2.148C95.28,1.906 94.984,1.643 94.663,1.437C94.512,1.344 94.336,1.289 94.185,1.206C93.762,0.97 93.337,0.734 92.876,0.567C92.543,0.446 92.2,0.394 91.852,0.312C91.552,0.24 91.256,0.133 90.946,0.084C90.463,0.021 89.971,0.021 89.472,0.023C89.302,0.023 89.134,-0.007 88.961,0.001C88.56,0.023 88.165,0.106 87.767,0.166C87.482,0.21 87.207,0.218 86.924,0.281C86.754,0.317 86.584,0.388 86.408,0.432C81.105,1.791 75.62,6.282 71.539,11.261C70.852,12.09 70.227,12.941 69.634,13.787C68.39,15.552 67.331,17.309 66.562,18.964C66.274,19.573 66.027,20.163 65.818,20.737L52.98,72.994C52.702,73.952 53.216,74.959 54.146,75.3L74.506,82.706C75.445,83.049 76.485,82.604 76.886,81.693L100.682,33.293C101.091,32.167 101.429,30.869 101.701,29.444ZM77.589,42.563C73.765,41.171 71.791,36.944 73.183,33.117C74.575,29.293 78.805,27.32 82.637,28.717C86.455,30.109 88.431,34.336 87.04,38.16C85.642,41.981 81.415,43.949 77.589,42.563Z" style="fill-rule:nonzero;"/>
        <path d="M66.647,88.259C63.68,92.039 60.729,94.729 58.851,94.042C56.968,93.356 56.433,89.406 56.589,84.597C54.138,84.827 52.118,86.173 50.998,89.244C49.131,94.375 45.475,116.211 50.158,117.921C54.838,119.62 66.082,100.545 67.948,95.415C69.063,92.343 68.371,90.013 66.647,88.259Z" style="fill-rule:nonzero;"/>
    </g>
    <g id="A" transform="matrix(3.17689,0,0,3.17689,83.7734,55.7858)">
        <path d="M63.26,57.846L63.26,60.8C63.259,60.8 63.259,60.8 63.258,60.8C61.908,60.8 60.798,61.91 60.798,63.26C60.798,63.261 60.798,63.261 60.798,63.262L57.844,63.262C57.844,61.912 56.733,60.801 55.382,60.801C54.032,60.801 52.921,61.912 52.921,63.262L49.97,63.262C49.97,61.912 48.859,60.801 47.509,60.801C46.158,60.801 45.047,61.912 45.047,63.262L42.093,63.262C42.093,61.912 40.982,60.801 39.631,60.801C38.281,60.801 37.17,61.912 37.17,63.262L34.216,63.262C34.216,61.912 33.105,60.801 31.754,60.801C30.404,60.801 29.293,61.912 29.293,63.262L26.339,63.262C26.339,61.912 25.228,60.801 23.877,60.801C22.527,60.801 21.416,61.912 21.416,63.262L18.46,63.262C18.46,61.912 17.349,60.801 15.999,60.801C14.648,60.801 13.537,61.912 13.537,63.262L10.583,63.262C10.583,61.912 9.472,60.801 8.122,60.801C6.771,60.801 5.66,61.912 5.66,63.262L2.708,63.262C2.708,63.261 2.708,63.261 2.708,63.26C2.708,61.91 1.598,60.8 0.248,60.8C0.247,60.8 0.247,60.8 0.246,60.8L0.246,57.846C1.596,57.846 2.708,56.735 2.708,55.384C2.708,54.034 1.596,52.923 0.246,52.923L0.246,49.97C1.596,49.97 2.708,48.859 2.708,47.509C2.708,46.158 1.596,45.047 0.246,45.047L0.246,42.093C1.596,42.093 2.708,40.982 2.708,39.631C2.708,38.281 1.596,37.17 0.246,37.17L0.246,34.216C1.596,34.216 2.708,33.105 2.708,31.754C2.708,30.404 1.596,29.293 0.246,29.293L0.246,26.339C1.596,26.339 2.708,25.228 2.708,23.877C2.708,22.527 1.596,21.416 0.246,21.416L0.246,18.46C1.596,18.46 2.708,17.349 2.708,15.999C2.708,14.648 1.596,13.537 0.246,13.537L0.246,10.583C1.596,10.583 2.708,9.472 2.708,8.122C2.708,6.771 1.596,5.66 0.246,5.66L0.246,2.708C0.247,2.708 0.247,2.708 0.248,2.708C1.598,2.708 2.708,1.598 2.708,0.248C2.708,0.247 2.708,0.247 2.708,0.246L5.66,0.246C5.66,1.596 6.771,2.708 8.122,2.708C9.472,2.708 10.583,1.596 10.583,0.246L13.537,0.246C13.537,1.596 14.648,2.708 15.999,2.708C17.349,2.708 18.46,1.596 18.46,0.246L21.414,0.246C21.414,1.596 22.525,2.708 23.876,2.708C25.226,2.708 26.337,1.596 26.337,0.246L29.291,0.246C29.291,1.596 30.402,2.708 31.753,2.708C33.103,2.708 34.214,1.596 34.214,0.246L37.168,0.246C37.168,1.596 38.279,2.708 39.63,2.708C40.98,2.708 42.091,1.596 42.091,0.246L45.045,0.246C45.045,1.596 46.156,2.708 47.507,2.708C48.857,2.708 49.968,1.596 49.968,0.246L52.922,0.246C52.922,1.596 54.033,2.708 55.384,2.708C56.734,2.708 57.845,1.596 57.845,0.246L60.8,0.246C60.8,0.247 60.8,0.247 60.8,0.248C60.8,1.598 61.91,2.708 63.26,2.708C63.261,2.708 63.261,2.708 63.262,2.708L63.262,5.66C61.912,5.66 60.801,6.771 60.801,8.122C60.801,9.472 61.912,10.583 63.262,10.583L63.262,13.537C61.912,13.537 60.801,14.648 60.801,15.999C60.801,17.349 61.912,18.46 63.262,18.46L63.262,21.414C61.912,21.414 60.801,22.525 60.801,23.876C60.801,25.226 61.912,26.337 63.262,26.337L63.262,29.291C61.912,29.291 60.801,30.402 60.801,31.753C60.801,33.103 61.912,34.214 63.262,34.214L63.262,37.168C61.912,37.168 60.801,38.279 60.801,39.63C60.801,40.98 61.912,42.091 63.262,42.091L63.262,45.045C61.912,45.045 60.801,46.156 60.801,47.507C60.801,48.857 61.912,49.968 63.262,49.968L63.262,52.922C61.912,52.922 60.801,54.033 60.801,55.384C60.801,56.734 61.912,57.845 63.262,57.845L63.26,57.846Z" style="fill:#f0f0f0;"/>
        <g>
            <path d="M63.508,57.6L63.508,61.046L63.262,61.046C62.038,61.046 61.047,62.038 61.047,63.261L61.047,63.507L57.6,63.507L57.6,63.261C57.6,62.037 56.608,61.046 55.385,61.046C54.162,61.046 53.17,62.038 53.17,63.261L53.17,63.507L49.724,63.507L49.724,63.261C49.724,62.037 48.732,61.046 47.509,61.046C46.286,61.046 45.294,62.038 45.294,63.261L45.294,63.507L41.848,63.507L41.848,63.261C41.848,62.037 40.856,61.046 39.633,61.046C38.41,61.046 37.418,62.038 37.418,63.261L37.418,63.507L33.97,63.507L33.97,63.261C33.97,62.037 32.978,61.046 31.755,61.046C30.532,61.046 29.54,62.038 29.54,63.261L29.54,63.507L26.094,63.507L26.094,63.261C26.094,62.037 25.102,61.046 23.879,61.046C22.656,61.046 21.664,62.038 21.664,63.261L21.664,63.507L18.218,63.507L18.218,63.261C18.218,62.037 17.226,61.046 16.003,61.046C14.78,61.046 13.788,62.038 13.788,63.261L13.788,63.507L10.34,63.507L10.34,63.261C10.34,62.037 9.348,61.046 8.125,61.046C6.902,61.046 5.91,62.038 5.91,63.261L5.91,63.507L2.462,63.507L2.462,63.261C2.462,62.037 1.47,61.046 0.247,61.046L0,61.046L0,57.6L0.246,57.6C1.47,57.6 2.461,56.608 2.461,55.385C2.461,54.162 1.47,53.17 0.246,53.17L0,53.17L0,49.724L0.246,49.724C1.47,49.724 2.461,48.732 2.461,47.509C2.461,46.286 1.47,45.292 0.246,45.292L0,45.292L0,41.846L0.246,41.846C1.47,41.846 2.461,40.854 2.461,39.631C2.461,38.408 1.47,37.415 0.246,37.415L0,37.415L0,33.97L0.246,33.97C1.47,33.97 2.461,32.978 2.461,31.755C2.461,30.532 1.47,29.54 0.246,29.54L0,29.54L0,26.094L0.246,26.094C1.47,26.094 2.461,25.102 2.461,23.879C2.461,22.656 1.47,21.662 0.246,21.662L0,21.662L0,18.216L0.246,18.216C1.47,18.216 2.461,17.224 2.461,16.001C2.461,14.778 1.47,13.785 0.246,13.785L0,13.785L0,10.34L0.246,10.34C1.47,10.34 2.461,9.348 2.461,8.125C2.461,6.902 1.47,5.908 0.246,5.908L0,5.908L0,2.462L0.246,2.462C1.47,2.462 2.461,1.47 2.461,0.247L2.461,0L5.907,0L5.907,0.246C5.907,1.47 6.899,2.461 8.122,2.461C9.345,2.461 10.34,1.47 10.34,0.246L10.34,0L13.786,0L13.786,0.246C13.786,1.47 14.778,2.461 16.001,2.461C17.224,2.461 18.216,1.469 18.216,0.246L18.216,0L21.662,0L21.662,0.246C21.662,1.47 22.654,2.461 23.877,2.461C25.1,2.461 26.092,1.469 26.092,0.246L26.092,0L29.538,0L29.538,0.246C29.538,1.47 30.53,2.461 31.753,2.461C32.976,2.461 33.97,1.47 33.97,0.246L33.97,0L37.416,0L37.416,0.246C37.416,1.47 38.408,2.461 39.631,2.461C40.854,2.461 41.846,1.469 41.846,0.246L41.846,0L45.292,0L45.292,0.246C45.292,1.47 46.284,2.461 47.507,2.461C48.73,2.461 49.722,1.469 49.722,0.246L49.722,0L53.168,0L53.168,0.246C53.168,1.47 54.16,2.461 55.383,2.461C56.606,2.461 57.6,1.47 57.6,0.246L57.6,0L61.046,0L61.046,0.246C61.046,1.47 62.038,2.461 63.261,2.461L63.507,2.461L63.507,5.907L63.261,5.907C62.037,5.907 61.046,6.899 61.046,8.122C61.046,9.345 62.038,10.337 63.261,10.337L63.507,10.337L63.507,13.783L63.261,13.783C62.037,13.783 61.046,14.775 61.046,15.998C61.046,17.221 62.038,18.213 63.261,18.213L63.507,18.213L63.507,21.659L63.261,21.659C62.037,21.659 61.046,22.651 61.046,23.874C61.046,25.097 62.038,26.089 63.261,26.089L63.507,26.089L63.507,29.535L63.261,29.535C62.037,29.535 61.046,30.527 61.046,31.75C61.046,32.973 62.038,33.965 63.261,33.965L63.507,33.965L63.507,37.411L63.261,37.411C62.037,37.411 61.046,38.403 61.046,39.626C61.046,40.849 62.038,41.841 63.261,41.841L63.507,41.841L63.507,45.287L63.261,45.287C62.037,45.287 61.046,46.279 61.046,47.502C61.046,48.725 62.038,49.717 63.261,49.717L63.507,49.717L63.507,53.163L63.261,53.163C62.037,53.163 61.046,54.155 61.046,55.378C61.046,56.601 62.038,57.593 63.261,57.593L63.508,57.6Z" style="fill:none;stroke:#ccc;stroke-width:0.49px;"/>
            <path d="M63.015,58.08C61.635,57.944 60.57,56.77 60.57,55.383C60.57,53.996 61.635,52.822 63.015,52.686L63.015,50.203C61.635,50.067 60.57,48.893 60.57,47.506C60.57,46.119 61.635,44.945 63.015,44.809L63.015,42.326C61.635,42.19 60.57,41.016 60.57,39.629C60.57,38.242 61.635,37.068 63.015,36.932L63.015,34.45C61.635,34.314 60.57,33.14 60.57,31.753C60.57,30.366 61.635,29.192 63.015,29.056L63.015,26.573C61.635,26.437 60.57,25.263 60.57,23.876C60.57,22.489 61.635,21.315 63.015,21.179L63.015,18.696C61.635,18.56 60.57,17.386 60.57,15.999C60.57,14.612 61.635,13.438 63.015,13.302L63.015,10.82C61.635,10.684 60.57,9.51 60.57,8.123C60.57,6.736 61.635,5.562 63.015,5.426L63.015,2.943C61.719,2.824 60.683,1.788 60.564,0.492L58.08,0.492C57.944,1.872 56.77,2.937 55.383,2.937C53.996,2.937 52.822,1.872 52.686,0.492L50.203,0.492C50.067,1.872 48.893,2.937 47.506,2.937C46.119,2.937 44.945,1.872 44.809,0.492L42.326,0.492C42.19,1.872 41.016,2.937 39.629,2.937C38.242,2.937 37.068,1.872 36.932,0.492L34.45,0.492C34.314,1.872 33.14,2.937 31.753,2.937C30.366,2.937 29.192,1.872 29.056,0.492L26.573,0.492C26.437,1.872 25.263,2.937 23.876,2.937C22.489,2.937 21.315,1.872 21.179,0.492L18.696,0.492C18.56,1.872 17.386,2.937 15.999,2.937C14.612,2.937 13.438,1.872 13.302,0.492L10.82,0.492C10.684,1.872 9.51,2.937 8.123,2.937C6.736,2.937 5.562,1.872 5.426,0.492L2.943,0.492C2.824,1.788 1.788,2.824 0.492,2.943L0.492,5.426C1.872,5.562 2.937,6.736 2.937,8.123C2.937,9.51 1.872,10.684 0.492,10.82L0.492,13.303C1.872,13.439 2.937,14.613 2.937,16C2.937,17.387 1.872,18.561 0.492,18.697L0.492,21.18C1.872,21.316 2.937,22.49 2.937,23.877C2.937,25.264 1.872,26.438 0.492,26.574L0.492,29.057C1.872,29.193 2.937,30.367 2.937,31.754C2.937,33.141 1.872,34.315 0.492,34.451L0.492,36.934C1.872,37.07 2.937,38.244 2.937,39.631C2.937,41.018 1.872,42.192 0.492,42.328L0.492,44.811C1.872,44.947 2.937,46.121 2.937,47.508C2.937,48.895 1.872,50.069 0.492,50.205L0.492,52.688C1.872,52.824 2.937,53.998 2.937,55.385C2.937,56.772 1.872,57.946 0.492,58.082L0.492,60.565C1.788,60.684 2.824,61.72 2.943,63.016L5.426,63.016C5.562,61.636 6.736,60.571 8.123,60.571C9.51,60.571 10.684,61.636 10.82,63.016L13.303,63.016C13.439,61.636 14.613,60.571 16,60.571C17.387,60.571 18.561,61.636 18.697,63.016L21.18,63.016C21.316,61.636 22.49,60.571 23.877,60.571C25.264,60.571 26.438,61.636 26.574,63.016L29.057,63.016C29.193,61.636 30.367,60.571 31.754,60.571C33.141,60.571 34.315,61.636 34.451,63.016L36.934,63.016C37.07,61.636 38.244,60.571 39.631,60.571C41.018,60.571 42.192,61.636 42.328,63.016L44.811,63.016C44.947,61.636 46.121,60.571 47.508,60.571C48.895,60.571 50.069,61.636 50.205,63.016L52.688,63.016C52.824,61.636 53.998,60.571 55.385,60.571C56.772,60.571 57.946,61.636 58.082,63.016L60.565,63.016C60.684,61.72 61.72,60.684 63.016,60.565L63.015,58.08Z" style="fill:none;stroke:#fff;stroke-width:0.49px;"/>
        </g>
        <path d="M8.123,9.108C8.123,9.106 8.123,9.105 8.123,9.103C8.123,8.565 8.565,8.123 9.103,8.123C9.105,8.123 9.106,8.123 9.108,8.123L54.4,8.123C54.402,8.123 54.403,8.123 54.405,8.123C54.943,8.123 55.385,8.565 55.385,9.103C55.385,9.105 55.385,9.106 55.385,9.108L55.385,54.4C55.385,54.945 54.945,55.385 54.4,55.385L9.108,55.385C8.562,55.385 8.123,54.945 8.123,54.4L8.123,9.108Z" style="fill:#fedd00;"/>
        <g>
            <path d="M8.37,9.354C8.37,9.352 8.37,9.351 8.37,9.349C8.37,8.811 8.812,8.369 9.35,8.369C9.352,8.369 9.353,8.369 9.355,8.369L54.155,8.369C54.157,8.369 54.158,8.369 54.16,8.369C54.698,8.369 55.14,8.811 55.14,9.349C55.14,9.351 55.14,9.352 55.14,9.354L55.14,54.154C55.14,54.7 54.7,55.139 54.155,55.139L9.355,55.139C8.809,55.139 8.37,54.699 8.37,54.154L8.37,9.354Z" style="fill:none;stroke:#d9b500;stroke-width:0.49px;"/>
            <path d="M7.877,8.862C7.877,8.86 7.877,8.859 7.877,8.857C7.877,8.319 8.319,7.877 8.857,7.877C8.859,7.877 8.86,7.877 8.862,7.877L54.647,7.877C55.192,7.877 55.632,8.317 55.632,8.862L55.632,54.647C55.632,55.192 55.192,55.632 54.647,55.632L8.862,55.632C8.317,55.632 7.877,55.192 7.877,54.647L7.877,8.862Z" style="fill:none;stroke:#fff;stroke-width:0.49px;"/>
        </g>
        <path d="M25.01,42.626L25.01,21.07L21.416,21.07L21.416,17.476L34.16,17.476C42.12,17.476 43.77,22.726 43.77,26.366C43.77,29.286 42.584,31.531 41.357,32.759C39.357,34.759 36.657,35.215 32.551,35.215L29.333,35.215L29.333,42.625L33.1,42.625L33.1,46.219L21.415,46.219L21.415,42.625L25.01,42.626ZM29.33,31.746L32.924,31.746C38.216,31.746 39.36,29.29 39.36,26.326C39.36,22.939 37.455,21.076 34.28,21.076L29.336,21.076L29.33,31.746Z"/>
    </g>
    <g transform="matrix(0.891748,0,0,0.891748,215.372,150.356)">
        <path d="M82.592,33.145C77.05,35.101 74.116,38.524 67.351,50.341C66.862,51.238 65.64,53.357 64.743,54.987C63.765,56.698 62.217,59.388 61.32,60.936C59.12,64.848 57.571,67.375 50.725,79.274C47.465,84.897 44.124,90.765 43.227,92.314C42.331,93.862 41.353,95.492 41.027,95.981C39.804,97.937 38.5,102.746 38.5,105.354C38.5,107.962 39.804,112.77 41.027,114.726C41.353,115.134 42.331,116.845 43.227,118.394C44.124,119.942 47.465,125.81 50.725,131.434C57.571,143.333 59.12,145.859 61.32,149.771C62.217,151.32 63.765,154.009 64.743,155.639C65.64,157.351 66.862,159.47 67.351,160.366C72.404,169.25 74.116,171.776 76.887,174.058C78.598,175.607 81.451,177.237 83.244,177.726C87.645,179.111 152.356,179.111 156.757,177.726C161.973,176.177 165.885,172.102 171.508,162.241C174.279,157.269 177.539,151.727 178.598,149.853C179.658,147.978 181.206,145.37 181.94,144.066C182.673,142.681 184.466,139.665 185.933,137.302C187.319,134.938 188.46,132.819 188.46,132.656C188.46,132.493 190.253,129.396 192.454,125.81C198.566,115.867 201.5,109.266 201.5,105.354C201.5,101.442 198.566,94.84 192.454,84.897C190.253,81.311 188.46,78.214 188.46,78.051C188.46,77.888 187.319,75.769 185.934,73.406C184.466,71.042 182.674,67.945 181.94,66.641C181.207,65.256 179.658,62.729 178.599,60.855C177.539,58.98 174.279,53.438 171.508,48.467C165.885,38.605 161.973,34.53 156.757,32.982C152.274,31.596 86.422,31.759 82.592,33.145ZM124.646,58.247C126.52,59.958 126.52,60.04 126.52,82.534L126.52,105.109L124.483,106.984C121.63,109.673 117.148,109.673 115.029,106.984C113.643,105.109 113.48,103.235 113.48,82.615C113.48,60.773 113.48,60.203 115.273,58.328C117.555,55.883 122.038,55.802 124.646,58.247ZM99.462,66.234C101.663,67.619 102.07,68.353 102.07,70.879C102.07,73.569 101.418,74.628 97.343,78.622C90.09,85.712 87.156,92.558 87.156,102.501C87.156,112.118 89.519,118.149 96.121,124.995C103.048,132.249 109.976,135.101 120.408,135.02C127.009,134.938 128.395,134.612 133.366,132.249C145.102,126.544 152.437,115.052 152.6,102.175C152.6,94.188 148.688,85.223 142.575,79.111C136.708,73.324 135.893,71.776 137.441,68.842C138.093,67.619 139.56,66.071 140.62,65.5C142.494,64.522 143.065,64.604 146.325,66.478C152.6,70.146 159.12,78.948 162.38,88.32C165.151,95.818 165.151,109.266 162.461,116.682C156.757,132.412 145.428,142.518 128.965,146.593C105.737,152.298 80.635,135.753 75.582,111.466C73.301,100.708 74.523,92.966 80.228,81.23C82.836,75.932 88.949,68.923 93.268,66.234C96.528,64.278 96.202,64.278 99.462,66.234Z" style="fill-rule:nonzero;"/>
    </g>
    <g transform="matrix(1.89259,0,0,1.89259,874.385,199.406)">
        <path d="M0,13.698C0.232,12.865 0.366,11.99 0.366,11.082C0.366,5.711 -3.988,1.357 -9.359,1.357C-9.723,1.357 -10.081,1.38 -10.434,1.419C-12.027,-4.889 -17.739,-9.559 -24.543,-9.559C-31.925,-9.559 -38.019,-4.061 -38.965,3.062C-39.398,3.005 -39.838,2.966 -40.286,2.966C-45.89,2.966 -50.432,7.508 -50.432,13.112C-50.432,18.715 -45.89,23.257 -40.286,23.257L-1.698,23.257C1.026,23.257 3.234,21.049 3.234,18.324C3.234,16.198 1.887,14.391 0,13.698" style="fill:#69c6ff;fill-rule:nonzero;"/>
    </g>
    <g transform="matrix(1.89259,0,0,1.89259,588.244,279.602)">
        <path d="M0,12.603C-0.019,12.603 -0.038,12.605 -0.056,12.606C-0.022,12.302 0,11.993 0,11.68C0,7.18 -3.648,3.533 -8.147,3.533C-10.214,3.533 -12.094,4.308 -13.531,5.576C-14.704,3.744 -16.499,2.35 -18.624,1.702C-20.506,-3.503 -25.491,-7.224 -31.345,-7.224C-38.815,-7.224 -44.871,-1.168 -44.871,6.302C-44.871,6.536 -44.865,6.768 -44.853,6.999C-46.15,5.845 -47.854,5.138 -49.727,5.138C-49.999,5.138 -50.266,5.155 -50.529,5.184C-52.134,1.429 -55.86,-1.203 -60.202,-1.203C-66.01,-1.203 -70.718,3.504 -70.718,9.312C-70.718,10.489 -70.521,11.62 -70.164,12.677C-71.809,13.015 -73.045,14.471 -73.045,16.215C-73.045,18.21 -71.428,19.827 -69.433,19.827L0,19.827C1.995,19.827 3.612,18.21 3.612,16.215C3.612,14.22 1.995,12.603 0,12.603" style="fill:#69c6ff;fill-rule:nonzero;"/>
    </g>
    <g transform="matrix(1.89259,0,0,1.89259,599.864,155.786)">
        <path d="M0,15.204C0,15.204 -7.573,16.825 -12.519,10.525C-17.465,4.225 -11.473,-1.029 -18.988,-4.724C-26.502,-8.419 -34.579,-4.355 -43.62,-4.541C-52.661,-4.727 -57.841,-12.214 -59.481,-11.15C-61.121,-10.086 -58.745,6.466 -32.511,4.857C-32.511,4.857 -44.033,6.473 -49.45,5.901C-54.867,5.329 -52.912,12.097 -44.42,13.872C-35.929,15.646 -28.167,12.015 -28.167,12.015C-28.167,12.015 -34.268,15.935 -39.159,16.779C-44.049,17.622 -32.561,27.068 -22.026,17.338C-22.026,17.338 -23.646,19.755 -25.407,22.077C-27.167,24.399 -17.781,26.213 -13.655,19.754C-13.655,19.754 -15.347,23.048 -14.9,24.687C-14.453,26.325 -8.192,27.418 -5.485,21.771C-5.485,21.771 -5.701,25.212 -3.749,25.566C-1.795,25.92 0.824,26.233 1.952,21.956C3.08,17.679 0,15.204 0,15.204" style="fill:#f2f2f2;fill-rule:nonzero;"/>
    </g>
    <g transform="matrix(1.89259,0,0,1.89259,740.815,86.9462)">
        <path d="M0,36.853C0,36.853 7.621,35.47 9.797,27.762C11.974,20.055 4.433,17.475 9.976,11.199C15.519,4.922 24.535,5.606 32.825,1.994C41.115,-1.618 43.057,-10.513 44.978,-10.153C46.899,-9.793 51,6.418 26.128,14.913C26.128,14.913 37.398,12.022 42.19,9.433C46.981,6.843 47.749,13.845 40.572,18.718C33.394,23.59 24.834,23.186 24.834,23.186C24.834,23.186 31.968,24.489 36.812,23.408C41.655,22.327 34.625,35.435 21.182,30.445C21.182,30.445 23.598,32.064 26.111,33.541C28.623,35.018 20.633,40.268 14.359,35.864C14.359,35.864 17.177,38.267 17.387,39.953C17.597,41.638 12.225,45.031 7.572,40.838C7.572,40.838 9.081,43.938 7.41,45.009C5.738,46.079 3.435,47.366 0.765,43.84C-1.906,40.313 0,36.853 0,36.853" style="fill:#f2f2f2;fill-rule:nonzero;"/>
    </g>
    <g transform="matrix(-1.85665,0.367066,0.367066,1.85665,585.057,175.406)">
        <rect x="-85.119" y="-8.333" width="80.846" height="51.972" style="fill:#ffd34d;"/>
    </g>
    <g transform="matrix(-1.67171,-0.887295,-0.887295,1.67171,670.101,143.042)">
        <path d="M-18.881,27.481L30.291,27.481L-22.526,31.96L-28.867,-20.666L-18.881,27.481Z" style="fill:#dd9f03;fill-rule:nonzero;"/>
    </g>
    <g transform="matrix(1.89259,0,0,1.89259,643.337,250.174)">
        <path d="M0,-31.156L-16.16,0L1.927,-28.968L0,-31.156Z" style="fill:#dd9f03;fill-rule:nonzero;"/>
    </g>
    <g transform="matrix(1.89259,0,0,1.89259,703.143,222.276)">
        <path d="M0,-22.663L26.8,0L-0.95,-19.906L0,-22.663Z" style="fill:#dd9f03;fill-rule:nonzero;"/>
    </g>
    <g transform="matrix(1.89259,0,0,1.89259,565.026,27.8767)">
        <path d="M0,17.762C0,17.762 -4.16,17.355 -5.672,13.306C-7.184,9.258 -3.242,7.536 -6.501,4.406C-9.761,1.276 -14.579,2.043 -19.198,0.467C-23.816,-1.109 -25.255,-5.806 -26.272,-5.528C-27.289,-5.249 -28.777,3.652 -15.024,7.118C-15.024,7.118 -21.213,6.063 -23.905,4.883C-26.597,3.702 -26.7,7.502 -22.624,9.804C-18.548,12.108 -13.962,11.511 -13.962,11.511C-13.962,11.511 -17.741,12.528 -20.394,12.161C-23.047,11.794 -18.686,18.532 -11.676,15.254C-11.676,15.254 -12.904,16.231 -14.19,17.137C-15.476,18.042 -10.946,20.512 -7.767,17.866C-7.767,17.866 -9.176,19.283 -9.215,20.199C-9.253,21.115 -6.213,22.701 -3.896,20.241C-3.896,20.241 -4.57,21.975 -3.624,22.476C-2.678,22.978 -1.382,23.568 -0.102,21.554C1.179,19.539 0,17.762 0,17.762" style="fill:#f2f2f2;fill-rule:nonzero;"/>
    </g>
    <g transform="matrix(1.89259,0,0,1.89259,642.068,49.23)">
        <path d="M0,11.101C0,11.101 4.145,11.637 6.525,8.03C8.907,4.423 5.452,1.862 9.329,-0.458C13.207,-2.778 17.731,-0.95 22.586,-1.45C27.44,-1.951 29.895,-6.207 30.824,-5.707C31.753,-5.207 31.208,3.8 17.027,4.096C17.027,4.096 23.296,4.455 26.184,3.908C29.071,3.361 28.32,7.087 23.831,8.417C19.343,9.748 15.008,8.139 15.008,8.139C15.008,8.139 18.463,9.976 21.13,10.214C23.798,10.451 18.037,16.04 11.94,11.273C11.94,11.273 12.919,12.502 13.969,13.672C15.019,14.843 10.051,16.235 7.545,12.943C7.545,12.943 8.602,14.641 8.434,15.541C8.266,16.442 4.947,17.308 3.241,14.39C3.241,14.39 3.509,16.231 2.475,16.508C1.44,16.785 0.045,17.069 -0.751,14.819C-1.547,12.568 0,11.101 0,11.101" style="fill:#f2f2f2;fill-rule:nonzero;"/>
    </g>
    <g transform="matrix(-1.88051,-0.213515,-0.213515,1.88051,567.95,42.3036)">
        <rect x="-41.907" y="2.371" width="43.629" height="28.047" style="fill:#ffd34d;"/>
    </g>
    <g transform="matrix(-1.32374,-1.35263,-1.35263,1.32374,618.177,62.0925)">
        <path d="M-2.459,14.834L24.076,14.834L-4.427,17.251L-7.849,-11.148L-2.459,14.834Z" style="fill:#dd9f03;fill-rule:nonzero;"/>
    </g>
    <g transform="matrix(1.89259,0,0,1.89259,586.292,97.3421)">
        <path d="M0,-13.375L-13.41,0L0.633,-11.934L0,-13.375Z" style="fill:#dd9f03;fill-rule:nonzero;"/>
    </g>
    <g transform="matrix(1.89259,0,0,1.89259,618.98,106.099)">
        <path d="M0,-16.041L10.071,0L-0.939,-14.779L0,-16.041Z" style="fill:#dd9f03;fill-rule:nonzero;"/>
    </g>
    <g transform="matrix(1.89259,0,0,1.89259,748.727,267.04)">
        <path d="M0,10.074C0,10.074 -3.032,10.203 -4.528,7.445C-6.025,4.687 -3.366,3.051 -6.025,1.13C-8.686,-0.791 -12.072,0.249 -15.552,-0.417C-19.032,-1.082 -20.542,-4.314 -21.245,-4.011C-21.948,-3.707 -22.117,2.842 -11.878,3.943C-11.878,3.943 -16.435,3.81 -18.489,3.234C-20.544,2.657 -20.233,5.4 -17.07,6.643C-13.907,7.886 -10.67,6.993 -10.67,6.993C-10.67,6.993 -13.284,8.106 -15.229,8.111C-17.173,8.116 -13.356,12.519 -8.648,9.452C-8.648,9.452 -9.432,10.28 -10.265,11.061C-11.098,11.842 -7.591,13.159 -5.573,10.935C-5.573,10.935 -6.443,12.096 -6.378,12.759C-6.312,13.421 -3.966,14.254 -2.55,12.25C-2.55,12.25 -2.859,13.565 -2.128,13.83C-1.397,14.095 -0.406,14.388 0.311,12.81C1.027,11.232 0,10.074 0,10.074" style="fill:#f2f2f2;fill-rule:nonzero;"/>
    </g>
    <g transform="matrix(1.89259,0,0,1.89259,805,263.437)">
        <path d="M0,11.181C0,11.181 3.034,11.147 4.381,8.313C5.728,5.479 2.984,3.987 5.537,1.927C8.091,-0.133 11.528,0.723 14.968,-0.128C18.406,-0.979 19.741,-4.287 20.459,-4.022C21.178,-3.757 21.697,2.774 11.532,4.422C11.532,4.422 16.075,4.046 18.096,3.36C20.117,2.675 19.954,5.43 16.861,6.84C13.77,8.251 10.49,7.533 10.49,7.533C10.49,7.533 13.159,8.505 15.102,8.405C17.043,8.306 13.467,12.907 8.602,10.097C8.602,10.097 9.43,10.881 10.303,11.616C11.176,12.352 7.745,13.855 5.611,11.742C5.611,11.742 6.542,12.855 6.512,13.52C6.482,14.185 4.185,15.142 2.663,13.218C2.663,13.218 3.042,14.514 2.326,14.818C1.61,15.121 0.637,15.468 -0.164,13.93C-0.964,12.392 0,11.181 0,11.181" style="fill:#f2f2f2;fill-rule:nonzero;"/>
    </g>
    <g transform="matrix(-1.89191,0.0507274,0.0507274,1.89191,746.126,276.161)">
        <rect x="-31.942" y="-0.428" width="31.675" height="20.362" style="fill:#ffd34d;"/>
    </g>
    <g transform="matrix(-1.49939,-1.15487,-1.15487,1.49939,782.076,281.531)">
        <path d="M-3.726,9.026L15.539,9.026L-5.155,10.781L-7.638,-9.837L-3.726,9.026Z" style="fill:#dd9f03;fill-rule:nonzero;"/>
    </g>
    <g transform="matrix(1.89259,0,0,1.89259,765.082,312.296)">
        <path d="M0,-10.973L-8.288,0L0.601,-10.001L0,-10.973Z" style="fill:#dd9f03;fill-rule:nonzero;"/>
    </g>
    <g transform="matrix(1.89259,0,0,1.89259,788.957,310.786)">
        <path d="M0,-10.513L8.864,0L-0.547,-9.511L0,-10.513Z" style="fill:#dd9f03;fill-rule:nonzero;"/>
    </g>
</svg>
